<svg xmlns="http://www.w3.org/2000/svg" xmlns:xlink="http://www.w3.org/1999/xlink" width="500" zoomAndPan="magnify" viewBox="0 0 375 374.999991" height="500" preserveAspectRatio="xMidYMid meet" version="1.0"><defs><g/><clipPath id="fdda44fb09"><path d="M 114.90625 125 L 260.40625 125 L 260.40625 224.054688 L 114.90625 224.054688 Z M 114.90625 125 " clip-rule="nonzero"/></clipPath><clipPath id="638c636e23"><path d="M 115 125.222656 L 202 125.222656 L 202 224.054688 L 115 224.054688 Z M 115 125.222656 " clip-rule="nonzero"/></clipPath><clipPath id="b0833db62b"><path d="M 257.003906 224.054688 L 117.992188 224.054688 C 115.519531 224.054688 114.054688 221.535156 115.445312 219.667969 L 184.949219 126.453125 C 185.523438 125.683594 186.476562 125.222656 187.496094 125.222656 C 188.519531 125.222656 189.472656 125.683594 190.046875 126.453125 L 259.550781 219.667969 C 260.941406 221.535156 259.476562 224.054688 257.003906 224.054688 Z M 257.003906 224.054688 " clip-rule="nonzero"/></clipPath><clipPath id="91615c7821"><path d="M 169 74.054688 L 206 74.054688 L 206 111 L 169 111 Z M 169 74.054688 " clip-rule="nonzero"/></clipPath></defs><g clip-path="url(#fdda44fb09)"><path fill="#ffffff" d="M 257.003906 224.054688 L 117.992188 224.054688 C 115.519531 224.054688 114.054688 221.535156 115.445312 219.667969 L 184.949219 126.453125 C 185.523438 125.683594 186.476562 125.222656 187.496094 125.222656 C 188.519531 125.222656 189.472656 125.683594 190.046875 126.453125 L 259.550781 219.667969 C 260.941406 221.535156 259.476562 224.054688 257.003906 224.054688 Z M 257.003906 224.054688 " fill-opacity="1" fill-rule="nonzero"/></g><g clip-path="url(#638c636e23)"><g clip-path="url(#b0833db62b)"><path fill="#b4b4b4" d="M 173.886719 231.261719 C 154.480469 232.753906 135 230.222656 115.722656 227.699219 C 113.636719 217.523438 117.226562 207.078125 122.078125 197.71875 C 126.929688 188.359375 133.097656 179.515625 136.683594 169.695312 C 140.257812 159.90625 141.207031 149.289062 146.273438 140.058594 C 149.273438 134.597656 153.71875 129.824219 159.054688 126.140625 C 162.953125 123.445312 167.425781 121.566406 172.058594 120.179688 C 176.476562 118.851562 180.78125 116.761719 184.589844 120.117188 C 188.109375 123.21875 188.328125 128.390625 186.878906 132.652344 C 185.433594 136.914062 182.632812 140.679688 180.773438 144.808594 C 178.910156 148.933594 178.085938 153.867188 180.570312 157.710938 C 184.015625 163.042969 191.601562 164.066406 196.664062 167.617188 C 202.847656 171.957031 202.164062 178.804688 198.824219 184.5625 C 195.617188 190.082031 191.441406 193.570312 186.175781 197.574219 C 184.613281 198.761719 182.054688 200.140625 181.382812 201.992188 C 180.648438 204.035156 182.621094 206.175781 184.855469 206.867188 C 188.804688 208.089844 195.519531 205.984375 197.933594 210.175781 C 199.957031 213.679688 194.480469 220.28125 192.007812 222.765625 C 187.507812 227.28125 180.558594 230.746094 173.886719 231.261719 Z M 173.886719 231.261719 " fill-opacity="1" fill-rule="nonzero"/></g></g><g clip-path="url(#91615c7821)"><path fill="#ffbd59" d="M 205.476562 92.039062 C 205.476562 92.625 205.449219 93.214844 205.390625 93.800781 C 205.332031 94.386719 205.246094 94.96875 205.132812 95.546875 C 205.019531 96.121094 204.875 96.695312 204.703125 97.257812 C 204.53125 97.820312 204.335938 98.375 204.109375 98.917969 C 203.882812 99.460938 203.632812 99.992188 203.355469 100.511719 C 203.078125 101.03125 202.773438 101.535156 202.449219 102.027344 C 202.121094 102.515625 201.769531 102.988281 201.398438 103.445312 C 201.023438 103.898438 200.628906 104.335938 200.210938 104.75 C 199.796875 105.167969 199.359375 105.5625 198.90625 105.9375 C 198.449219 106.308594 197.976562 106.660156 197.488281 106.988281 C 196.996094 107.316406 196.492188 107.617188 195.972656 107.894531 C 195.453125 108.171875 194.921875 108.421875 194.378906 108.648438 C 193.835938 108.875 193.28125 109.074219 192.71875 109.242188 C 192.152344 109.414062 191.582031 109.558594 191.003906 109.671875 C 190.429688 109.785156 189.847656 109.875 189.261719 109.929688 C 188.675781 109.988281 188.085938 110.015625 187.496094 110.015625 C 186.910156 110.015625 186.320312 109.988281 185.734375 109.929688 C 185.148438 109.875 184.566406 109.785156 183.992188 109.671875 C 183.414062 109.558594 182.84375 109.414062 182.277344 109.242188 C 181.714844 109.074219 181.160156 108.875 180.617188 108.648438 C 180.074219 108.421875 179.542969 108.171875 179.023438 107.894531 C 178.503906 107.617188 178 107.316406 177.507812 106.988281 C 177.019531 106.660156 176.546875 106.308594 176.089844 105.9375 C 175.636719 105.5625 175.199219 105.167969 174.785156 104.75 C 174.367188 104.335938 173.972656 103.898438 173.597656 103.445312 C 173.226562 102.988281 172.875 102.515625 172.546875 102.027344 C 172.222656 101.535156 171.917969 101.03125 171.640625 100.511719 C 171.363281 99.992188 171.113281 99.460938 170.886719 98.917969 C 170.660156 98.375 170.464844 97.820312 170.292969 97.257812 C 170.121094 96.695312 169.976562 96.121094 169.863281 95.546875 C 169.75 94.96875 169.664062 94.386719 169.605469 93.800781 C 169.546875 93.214844 169.519531 92.625 169.519531 92.039062 C 169.519531 91.449219 169.546875 90.859375 169.605469 90.273438 C 169.664062 89.6875 169.75 89.105469 169.863281 88.53125 C 169.976562 87.953125 170.121094 87.382812 170.292969 86.816406 C 170.464844 86.253906 170.660156 85.699219 170.886719 85.15625 C 171.113281 84.613281 171.363281 84.082031 171.640625 83.5625 C 171.917969 83.042969 172.222656 82.539062 172.546875 82.046875 C 172.875 81.558594 173.226562 81.085938 173.597656 80.632812 C 173.972656 80.175781 174.367188 79.738281 174.785156 79.324219 C 175.199219 78.90625 175.636719 78.511719 176.089844 78.140625 C 176.546875 77.765625 177.019531 77.414062 177.507812 77.085938 C 178 76.761719 178.503906 76.457031 179.023438 76.179688 C 179.542969 75.902344 180.074219 75.652344 180.617188 75.425781 C 181.160156 75.199219 181.714844 75.003906 182.277344 74.832031 C 182.84375 74.660156 183.414062 74.519531 183.992188 74.402344 C 184.566406 74.289062 185.148438 74.203125 185.734375 74.144531 C 186.320312 74.085938 186.910156 74.058594 187.496094 74.058594 C 188.085938 74.058594 188.675781 74.085938 189.261719 74.144531 C 189.847656 74.203125 190.429688 74.289062 191.003906 74.402344 C 191.582031 74.519531 192.152344 74.660156 192.71875 74.832031 C 193.28125 75.003906 193.835938 75.199219 194.378906 75.425781 C 194.921875 75.652344 195.453125 75.902344 195.972656 76.179688 C 196.492188 76.457031 196.996094 76.761719 197.488281 77.085938 C 197.976562 77.414062 198.449219 77.765625 198.90625 78.140625 C 199.359375 78.511719 199.796875 78.90625 200.210938 79.324219 C 200.628906 79.738281 201.023438 80.175781 201.398438 80.632812 C 201.769531 81.085938 202.121094 81.558594 202.449219 82.046875 C 202.773438 82.539062 203.078125 83.042969 203.355469 83.5625 C 203.632812 84.082031 203.882812 84.613281 204.109375 85.15625 C 204.335938 85.699219 204.53125 86.253906 204.703125 86.816406 C 204.875 87.382812 205.019531 87.953125 205.132812 88.53125 C 205.246094 89.105469 205.332031 89.6875 205.390625 90.273438 C 205.449219 90.859375 205.476562 91.449219 205.476562 92.039062 Z M 205.476562 92.039062 " fill-opacity="1" fill-rule="nonzero"/></g><g fill="#ffffff" fill-opacity="1"><g transform="translate(110.46604, 290.526485)"><g><path d="M 26.09375 0 L 17.53125 0 L 0.953125 -44.890625 L 12.484375 -44.890625 L 21.765625 -16.5625 L 31.21875 -44.890625 L 42.734375 -44.890625 Z M 26.09375 0 "/></g></g></g><g fill="#ffffff" fill-opacity="1"><g transform="translate(148.23827, 290.526485)"><g><path d="M 17.84375 0.875 C 13.632812 0.875 10.128906 -0.253906 7.328125 -2.515625 C 4.523438 -4.785156 3.125 -8.054688 3.125 -12.328125 C 3.125 -14.722656 3.585938 -16.757812 4.515625 -18.4375 C 5.453125 -20.125 6.695312 -21.5 8.25 -22.5625 C 9.6875 -23.582031 11.320312 -24.382812 13.15625 -24.96875 C 15 -25.550781 16.859375 -26.03125 18.734375 -26.40625 L 32.09375 -28.890625 C 31.988281 -31.660156 31.269531 -33.769531 29.9375 -35.21875 C 28.601562 -36.65625 26.597656 -37.375 23.921875 -37.375 C 21.898438 -37.375 20.101562 -36.769531 18.53125 -35.5625 C 16.957031 -34.363281 15.957031 -32.703125 15.53125 -30.578125 L 4.796875 -30.578125 C 5.335938 -34.097656 6.566406 -36.976562 8.484375 -39.21875 C 10.398438 -41.457031 12.734375 -43.125 15.484375 -44.21875 C 18.234375 -45.3125 21.078125 -45.859375 24.015625 -45.859375 C 26.628906 -45.859375 29.132812 -45.484375 31.53125 -44.734375 C 33.9375 -43.984375 35.960938 -42.835938 37.609375 -41.296875 C 39.367188 -39.742188 40.625 -37.96875 41.375 -35.96875 C 42.125 -33.96875 42.5625 -31.882812 42.6875 -29.71875 C 42.820312 -27.5625 42.890625 -25.445312 42.890625 -23.375 L 42.890625 0 L 32.09375 0 L 32.09375 -6.078125 C 30.96875 -4.109375 29.609375 -2.613281 28.015625 -1.59375 C 26.628906 -0.6875 25.066406 -0.0507812 23.328125 0.3125 C 21.597656 0.6875 19.769531 0.875 17.84375 0.875 Z M 20.484375 -7.609375 C 22.617188 -7.609375 24.539062 -8.035156 26.25 -8.890625 C 28.59375 -10.054688 30.175781 -11.625 31 -13.59375 C 31.832031 -15.570312 32.273438 -18.03125 32.328125 -20.96875 L 21.609375 -18.8125 C 20.054688 -18.539062 18.785156 -18.191406 17.796875 -17.765625 C 16.816406 -17.335938 16.003906 -16.832031 15.359375 -16.25 C 14.929688 -15.820312 14.582031 -15.3125 14.3125 -14.71875 C 14.050781 -14.132812 13.921875 -13.46875 13.921875 -12.71875 C 13.921875 -11.070312 14.546875 -9.804688 15.796875 -8.921875 C 17.054688 -8.046875 18.617188 -7.609375 20.484375 -7.609375 Z M 20.484375 -7.609375 "/></g></g></g><g fill="#ffffff" fill-opacity="1"><g transform="translate(190.892251, 290.526485)"><g><path d="M 15.6875 0 L 4.875 0 L 4.875 -44.890625 L 15.6875 -44.890625 L 15.6875 -39.21875 C 17.5 -41.726562 19.390625 -43.460938 21.359375 -44.421875 C 23.335938 -45.378906 25.53125 -45.859375 27.9375 -45.859375 C 32.039062 -45.859375 35.144531 -45.125 37.25 -43.65625 C 39.363281 -42.1875 40.925781 -40.410156 41.9375 -38.328125 C 42.84375 -36.359375 43.375 -34.347656 43.53125 -32.296875 C 43.695312 -30.242188 43.78125 -28.09375 43.78125 -25.84375 L 43.78125 0 L 33.046875 0 L 33.046875 -26.015625 C 33.046875 -28.304688 32.859375 -30.15625 32.484375 -31.5625 C 32.117188 -32.976562 31.5625 -34.113281 30.8125 -34.96875 C 29.53125 -36.300781 27.632812 -36.96875 25.125 -36.96875 C 22.082031 -36.96875 19.816406 -36.0625 18.328125 -34.25 C 17.421875 -33.1875 16.753906 -31.773438 16.328125 -30.015625 C 15.898438 -28.253906 15.6875 -25.878906 15.6875 -22.890625 Z M 15.6875 0 "/></g></g></g><g fill="#ffffff" fill-opacity="1"><g transform="translate(233.866301, 290.526485)"><g><path d="M 27.84375 0 L 18.96875 0 C 15.65625 0 13.078125 -0.769531 11.234375 -2.3125 C 9.398438 -3.863281 8.484375 -6.375 8.484375 -9.84375 L 8.484375 -36.25 L 1.84375 -36.25 L 1.84375 -44.890625 L 8.484375 -44.890625 L 8.484375 -61.0625 L 19.28125 -61.0625 L 19.28125 -44.890625 L 27.9375 -44.890625 L 27.9375 -36.25 L 19.28125 -36.25 L 19.28125 -13.125 C 19.28125 -11.945312 19.476562 -10.957031 19.875 -10.15625 C 20.28125 -9.363281 21.3125 -8.96875 22.96875 -8.96875 L 27.84375 -8.96875 Z M 27.84375 0 "/></g></g></g><g fill="#ffffff" fill-opacity="1"><g transform="translate(105.600232, 304.778301)"><g><path d="M 4.296875 0 L 2.71875 0 L 0.03125 -7.625 L 1.546875 -7.625 L 3.515625 -1.578125 L 5.484375 -7.625 L 6.984375 -7.625 Z M 4.296875 0 "/></g></g></g><g fill="#ffffff" fill-opacity="1"><g transform="translate(111.967622, 304.778301)"><g><path d="M 2.234375 0.109375 C 1.703125 0.109375 1.257812 -0.03125 0.90625 -0.3125 C 0.5625 -0.59375 0.390625 -1.003906 0.390625 -1.546875 C 0.390625 -1.835938 0.445312 -2.085938 0.5625 -2.296875 C 0.675781 -2.515625 0.832031 -2.6875 1.03125 -2.8125 C 1.207031 -2.945312 1.410156 -3.050781 1.640625 -3.125 C 1.867188 -3.195312 2.101562 -3.253906 2.34375 -3.296875 L 4.015625 -3.609375 C 3.992188 -3.953125 3.898438 -4.21875 3.734375 -4.40625 C 3.566406 -4.582031 3.316406 -4.671875 2.984375 -4.671875 C 2.734375 -4.671875 2.507812 -4.59375 2.3125 -4.4375 C 2.113281 -4.289062 1.988281 -4.082031 1.9375 -3.8125 L 0.59375 -3.8125 C 0.664062 -4.257812 0.820312 -4.617188 1.0625 -4.890625 C 1.300781 -5.171875 1.59375 -5.378906 1.9375 -5.515625 C 2.28125 -5.660156 2.632812 -5.734375 3 -5.734375 C 3.320312 -5.734375 3.632812 -5.6875 3.9375 -5.59375 C 4.238281 -5.5 4.492188 -5.351562 4.703125 -5.15625 C 4.921875 -4.96875 5.078125 -4.75 5.171875 -4.5 C 5.265625 -4.25 5.316406 -3.988281 5.328125 -3.71875 C 5.347656 -3.445312 5.359375 -3.179688 5.359375 -2.921875 L 5.359375 0 L 4.015625 0 L 4.015625 -0.765625 C 3.867188 -0.515625 3.695312 -0.328125 3.5 -0.203125 C 3.320312 -0.0859375 3.125 -0.0078125 2.90625 0.03125 C 2.695312 0.0820312 2.472656 0.109375 2.234375 0.109375 Z M 2.5625 -0.953125 C 2.820312 -0.953125 3.0625 -1.003906 3.28125 -1.109375 C 3.570312 -1.253906 3.769531 -1.445312 3.875 -1.6875 C 3.976562 -1.9375 4.035156 -2.25 4.046875 -2.625 L 2.703125 -2.34375 C 2.503906 -2.3125 2.34375 -2.269531 2.21875 -2.21875 C 2.101562 -2.164062 2.003906 -2.101562 1.921875 -2.03125 C 1.867188 -1.976562 1.820312 -1.914062 1.78125 -1.84375 C 1.75 -1.769531 1.734375 -1.6875 1.734375 -1.59375 C 1.734375 -1.382812 1.8125 -1.222656 1.96875 -1.109375 C 2.125 -1.003906 2.320312 -0.953125 2.5625 -0.953125 Z M 2.5625 -0.953125 "/></g></g></g><g fill="#ffffff" fill-opacity="1"><g transform="translate(117.845295, 304.778301)"><g><path d="M 2.765625 0 L 1.890625 0 C 1.472656 0 1.148438 -0.09375 0.921875 -0.28125 C 0.703125 -0.476562 0.59375 -0.796875 0.59375 -1.234375 L 0.59375 -7.625 L 1.9375 -7.625 L 1.9375 -1.625 C 1.9375 -1.4375 1.972656 -1.304688 2.046875 -1.234375 C 2.117188 -1.160156 2.238281 -1.125 2.40625 -1.125 L 2.765625 -1.125 Z M 2.765625 0 "/></g></g></g><g fill="#ffffff" fill-opacity="1"><g transform="translate(120.814121, 304.778301)"><g><path d="M 2.5625 0.109375 C 1.695312 0.109375 1.113281 -0.195312 0.8125 -0.8125 C 0.726562 -1 0.664062 -1.203125 0.625 -1.421875 C 0.59375 -1.648438 0.578125 -1.96875 0.578125 -2.375 L 0.578125 -5.609375 L 1.9375 -5.609375 L 1.9375 -2.375 C 1.9375 -2.082031 1.957031 -1.847656 2 -1.671875 C 2.039062 -1.492188 2.109375 -1.351562 2.203125 -1.25 C 2.359375 -1.082031 2.59375 -1 2.90625 -1 C 3.289062 -1 3.578125 -1.113281 3.765625 -1.34375 C 3.878906 -1.476562 3.960938 -1.65625 4.015625 -1.875 C 4.066406 -2.09375 4.09375 -2.390625 4.09375 -2.765625 L 4.09375 -5.609375 L 5.4375 -5.609375 L 5.4375 0 L 4.09375 0 L 4.09375 -0.703125 C 3.882812 -0.421875 3.660156 -0.210938 3.421875 -0.078125 C 3.179688 0.046875 2.894531 0.109375 2.5625 0.109375 Z M 2.5625 0.109375 "/></g></g></g><g fill="#ffffff" fill-opacity="1"><g transform="translate(126.841736, 304.778301)"><g><path d="M 3.234375 0.109375 C 2.660156 0.109375 2.160156 -0.015625 1.734375 -0.265625 C 1.304688 -0.515625 0.972656 -0.851562 0.734375 -1.28125 C 0.492188 -1.71875 0.375 -2.210938 0.375 -2.765625 C 0.375 -3.128906 0.429688 -3.488281 0.546875 -3.84375 C 0.660156 -4.195312 0.832031 -4.515625 1.0625 -4.796875 C 1.300781 -5.085938 1.597656 -5.316406 1.953125 -5.484375 C 2.304688 -5.648438 2.722656 -5.734375 3.203125 -5.734375 C 3.554688 -5.734375 3.898438 -5.675781 4.234375 -5.5625 C 4.578125 -5.445312 4.878906 -5.269531 5.140625 -5.03125 C 5.410156 -4.800781 5.625 -4.5 5.78125 -4.125 C 5.9375 -3.757812 6.015625 -3.320312 6.015625 -2.8125 L 6.015625 -2.53125 L 1.78125 -2.53125 C 1.789062 -2.40625 1.816406 -2.285156 1.859375 -2.171875 C 1.898438 -2.054688 1.941406 -1.957031 1.984375 -1.875 C 2.117188 -1.613281 2.296875 -1.410156 2.515625 -1.265625 C 2.742188 -1.117188 3.003906 -1.046875 3.296875 -1.046875 C 3.609375 -1.046875 3.875 -1.128906 4.09375 -1.296875 C 4.3125 -1.460938 4.460938 -1.660156 4.546875 -1.890625 L 5.9375 -1.890625 C 5.820312 -1.523438 5.644531 -1.191406 5.40625 -0.890625 C 5.175781 -0.585938 4.878906 -0.34375 4.515625 -0.15625 C 4.160156 0.0195312 3.734375 0.109375 3.234375 0.109375 Z M 1.84375 -3.546875 L 4.640625 -3.546875 C 4.628906 -3.617188 4.609375 -3.703125 4.578125 -3.796875 C 4.554688 -3.890625 4.507812 -3.976562 4.4375 -4.0625 C 4.300781 -4.257812 4.128906 -4.40625 3.921875 -4.5 C 3.710938 -4.601562 3.484375 -4.65625 3.234375 -4.65625 C 2.992188 -4.65625 2.769531 -4.601562 2.5625 -4.5 C 2.363281 -4.40625 2.195312 -4.257812 2.0625 -4.0625 C 1.988281 -3.976562 1.9375 -3.890625 1.90625 -3.796875 C 1.875 -3.703125 1.851562 -3.617188 1.84375 -3.546875 Z M 1.84375 -3.546875 "/></g></g></g><g fill="#ffffff" fill-opacity="1"><g transform="translate(133.209216, 304.778301)"><g/></g></g><g fill="#ffffff" fill-opacity="1"><g transform="translate(135.858169, 304.778301)"><g><path d="M 2.234375 1.09375 L 1.125 1.09375 L 1.125 -8.71875 L 2.234375 -8.71875 Z M 2.234375 1.09375 "/></g></g></g><g fill="#ffffff" fill-opacity="1"><g transform="translate(139.186854, 304.778301)"><g/></g></g><g fill="#ffffff" fill-opacity="1"><g transform="translate(141.835807, 304.778301)"><g><path d="M 1.578125 0 L 0.0625 0 L 2.765625 -7.625 L 4.34375 -7.625 L 7.03125 0 L 5.515625 0 L 5 -1.5625 L 2.09375 -1.5625 Z M 3.546875 -6.0625 L 2.5 -2.828125 L 4.59375 -2.828125 Z M 3.546875 -6.0625 "/></g></g></g><g fill="#ffffff" fill-opacity="1"><g transform="translate(148.793036, 304.778301)"><g><path d="M 3.234375 0.109375 C 2.671875 0.109375 2.171875 -0.0078125 1.734375 -0.25 C 1.304688 -0.5 0.972656 -0.84375 0.734375 -1.28125 C 0.492188 -1.726562 0.375 -2.25 0.375 -2.84375 C 0.375 -3.40625 0.492188 -3.898438 0.734375 -4.328125 C 0.972656 -4.765625 1.304688 -5.109375 1.734375 -5.359375 C 2.160156 -5.609375 2.660156 -5.734375 3.234375 -5.734375 C 3.898438 -5.734375 4.46875 -5.554688 4.9375 -5.203125 C 5.414062 -4.859375 5.722656 -4.394531 5.859375 -3.8125 L 4.390625 -3.8125 C 4.210938 -4.351562 3.828125 -4.625 3.234375 -4.625 C 2.796875 -4.625 2.441406 -4.460938 2.171875 -4.140625 C 1.898438 -3.816406 1.765625 -3.382812 1.765625 -2.84375 C 1.765625 -2.28125 1.898438 -1.828125 2.171875 -1.484375 C 2.441406 -1.148438 2.796875 -0.984375 3.234375 -0.984375 C 3.554688 -0.984375 3.816406 -1.0625 4.015625 -1.21875 C 4.210938 -1.382812 4.347656 -1.609375 4.421875 -1.890625 L 5.875 -1.890625 C 5.789062 -1.472656 5.625 -1.113281 5.375 -0.8125 C 5.132812 -0.507812 4.828125 -0.28125 4.453125 -0.125 C 4.085938 0.03125 3.679688 0.109375 3.234375 0.109375 Z M 3.234375 0.109375 "/></g></g></g><g fill="#ffffff" fill-opacity="1"><g transform="translate(154.97059, 304.778301)"><g><path d="M 3.484375 0 L 2.375 0 C 1.957031 0 1.632812 -0.09375 1.40625 -0.28125 C 1.175781 -0.476562 1.0625 -0.796875 1.0625 -1.234375 L 1.0625 -4.53125 L 0.234375 -4.53125 L 0.234375 -5.609375 L 1.0625 -5.609375 L 1.0625 -7.625 L 2.40625 -7.625 L 2.40625 -5.609375 L 3.484375 -5.609375 L 3.484375 -4.53125 L 2.40625 -4.53125 L 2.40625 -1.640625 C 2.40625 -1.492188 2.429688 -1.367188 2.484375 -1.265625 C 2.535156 -1.171875 2.664062 -1.125 2.875 -1.125 L 3.484375 -1.125 Z M 3.484375 0 "/></g></g></g><g fill="#ffffff" fill-opacity="1"><g transform="translate(158.76909, 304.778301)"><g><path d="M 1.296875 -6.234375 C 1.066406 -6.234375 0.867188 -6.300781 0.703125 -6.4375 C 0.535156 -6.582031 0.453125 -6.769531 0.453125 -7 C 0.453125 -7.226562 0.535156 -7.410156 0.703125 -7.546875 C 0.867188 -7.691406 1.066406 -7.765625 1.296875 -7.765625 C 1.515625 -7.765625 1.707031 -7.691406 1.875 -7.546875 C 2.039062 -7.410156 2.125 -7.226562 2.125 -7 C 2.125 -6.769531 2.039062 -6.582031 1.875 -6.4375 C 1.707031 -6.300781 1.515625 -6.234375 1.296875 -6.234375 Z M 1.953125 0 L 0.609375 0 L 0.609375 -5.609375 L 1.953125 -5.609375 Z M 1.953125 0 "/></g></g></g><g fill="#ffffff" fill-opacity="1"><g transform="translate(161.318078, 304.778301)"><g><path d="M 3.25 0.109375 C 2.6875 0.109375 2.1875 -0.0078125 1.75 -0.25 C 1.320312 -0.5 0.984375 -0.84375 0.734375 -1.28125 C 0.492188 -1.726562 0.375 -2.25 0.375 -2.84375 C 0.375 -3.40625 0.492188 -3.898438 0.734375 -4.328125 C 0.984375 -4.765625 1.320312 -5.109375 1.75 -5.359375 C 2.1875 -5.609375 2.6875 -5.734375 3.25 -5.734375 C 3.8125 -5.734375 4.3125 -5.609375 4.75 -5.359375 C 5.1875 -5.109375 5.523438 -4.765625 5.765625 -4.328125 C 6.003906 -3.898438 6.125 -3.40625 6.125 -2.84375 C 6.125 -2.257812 6.003906 -1.742188 5.765625 -1.296875 C 5.523438 -0.859375 5.1875 -0.515625 4.75 -0.265625 C 4.320312 -0.015625 3.820312 0.109375 3.25 0.109375 Z M 3.25 -1.046875 C 3.6875 -1.046875 4.039062 -1.210938 4.3125 -1.546875 C 4.59375 -1.878906 4.734375 -2.3125 4.734375 -2.84375 C 4.734375 -3.175781 4.671875 -3.472656 4.546875 -3.734375 C 4.421875 -3.992188 4.25 -4.195312 4.03125 -4.34375 C 3.8125 -4.488281 3.550781 -4.5625 3.25 -4.5625 C 2.957031 -4.5625 2.695312 -4.488281 2.46875 -4.34375 C 2.25 -4.195312 2.078125 -3.992188 1.953125 -3.734375 C 1.828125 -3.472656 1.765625 -3.175781 1.765625 -2.84375 C 1.765625 -2.3125 1.898438 -1.878906 2.171875 -1.546875 C 2.453125 -1.210938 2.8125 -1.046875 3.25 -1.046875 Z M 3.25 -1.046875 "/></g></g></g><g fill="#ffffff" fill-opacity="1"><g transform="translate(167.805516, 304.778301)"><g><path d="M 1.953125 0 L 0.609375 0 L 0.609375 -5.609375 L 1.953125 -5.609375 L 1.953125 -4.90625 C 2.179688 -5.21875 2.421875 -5.429688 2.671875 -5.546875 C 2.921875 -5.671875 3.191406 -5.734375 3.484375 -5.734375 C 4.003906 -5.734375 4.394531 -5.640625 4.65625 -5.453125 C 4.914062 -5.273438 5.109375 -5.054688 5.234375 -4.796875 C 5.347656 -4.546875 5.414062 -4.289062 5.4375 -4.03125 C 5.457031 -3.78125 5.46875 -3.515625 5.46875 -3.234375 L 5.46875 0 L 4.125 0 L 4.125 -3.25 C 4.125 -3.539062 4.097656 -3.769531 4.046875 -3.9375 C 4.003906 -4.113281 3.9375 -4.257812 3.84375 -4.375 C 3.6875 -4.539062 3.453125 -4.625 3.140625 -4.625 C 2.753906 -4.625 2.472656 -4.507812 2.296875 -4.28125 C 2.179688 -4.144531 2.09375 -3.96875 2.03125 -3.75 C 1.976562 -3.53125 1.953125 -3.234375 1.953125 -2.859375 Z M 1.953125 0 "/></g></g></g><g fill="#ffffff" fill-opacity="1"><g transform="translate(173.82314, 304.778301)"><g/></g></g><g fill="#ffffff" fill-opacity="1"><g transform="translate(176.472092, 304.778301)"><g><path d="M 2.234375 1.09375 L 1.125 1.09375 L 1.125 -8.71875 L 2.234375 -8.71875 Z M 2.234375 1.09375 "/></g></g></g><g fill="#ffffff" fill-opacity="1"><g transform="translate(179.800777, 304.778301)"><g/></g></g><g fill="#ffffff" fill-opacity="1"><g transform="translate(182.44973, 304.778301)"><g><path d="M 2.125 0 L 0.6875 0 L 0.6875 -7.625 L 2.296875 -7.625 L 5.4375 -2.171875 L 5.4375 -7.625 L 6.875 -7.625 L 6.875 0 L 5.234375 0 L 2.125 -5.46875 Z M 2.125 0 "/></g></g></g><g fill="#ffffff" fill-opacity="1"><g transform="translate(189.966758, 304.778301)"><g><path d="M 2.5625 0.109375 C 1.695312 0.109375 1.113281 -0.195312 0.8125 -0.8125 C 0.726562 -1 0.664062 -1.203125 0.625 -1.421875 C 0.59375 -1.648438 0.578125 -1.96875 0.578125 -2.375 L 0.578125 -5.609375 L 1.9375 -5.609375 L 1.9375 -2.375 C 1.9375 -2.082031 1.957031 -1.847656 2 -1.671875 C 2.039062 -1.492188 2.109375 -1.351562 2.203125 -1.25 C 2.359375 -1.082031 2.59375 -1 2.90625 -1 C 3.289062 -1 3.578125 -1.113281 3.765625 -1.34375 C 3.878906 -1.476562 3.960938 -1.65625 4.015625 -1.875 C 4.066406 -2.09375 4.09375 -2.390625 4.09375 -2.765625 L 4.09375 -5.609375 L 5.4375 -5.609375 L 5.4375 0 L 4.09375 0 L 4.09375 -0.703125 C 3.882812 -0.421875 3.660156 -0.210938 3.421875 -0.078125 C 3.179688 0.046875 2.894531 0.109375 2.5625 0.109375 Z M 2.5625 0.109375 "/></g></g></g><g fill="#ffffff" fill-opacity="1"><g transform="translate(195.994372, 304.778301)"><g><path d="M 1.953125 0 L 0.609375 0 L 0.609375 -5.609375 L 1.953125 -5.609375 L 1.953125 -4.90625 C 2.179688 -5.207031 2.421875 -5.421875 2.671875 -5.546875 C 2.929688 -5.671875 3.203125 -5.734375 3.484375 -5.734375 C 3.859375 -5.734375 4.175781 -5.65625 4.4375 -5.5 C 4.695312 -5.351562 4.867188 -5.128906 4.953125 -4.828125 C 5.140625 -5.140625 5.367188 -5.367188 5.640625 -5.515625 C 5.921875 -5.660156 6.242188 -5.734375 6.609375 -5.734375 C 7.242188 -5.734375 7.707031 -5.546875 8 -5.171875 C 8.300781 -4.804688 8.453125 -4.3125 8.453125 -3.6875 L 8.453125 0 L 7.09375 0 L 7.09375 -3.515625 C 7.09375 -3.898438 7.019531 -4.179688 6.875 -4.359375 C 6.726562 -4.535156 6.507812 -4.625 6.21875 -4.625 C 6.070312 -4.625 5.941406 -4.597656 5.828125 -4.546875 C 5.710938 -4.492188 5.617188 -4.425781 5.546875 -4.34375 C 5.421875 -4.195312 5.332031 -4.007812 5.28125 -3.78125 C 5.226562 -3.5625 5.203125 -3.289062 5.203125 -2.96875 L 5.203125 0 L 3.859375 0 L 3.859375 -3.515625 C 3.859375 -3.890625 3.78125 -4.164062 3.625 -4.34375 C 3.46875 -4.53125 3.25 -4.625 2.96875 -4.625 C 2.6875 -4.625 2.460938 -4.523438 2.296875 -4.328125 C 2.179688 -4.203125 2.09375 -4.035156 2.03125 -3.828125 C 1.976562 -3.617188 1.953125 -3.332031 1.953125 -2.96875 Z M 1.953125 0 "/></g></g></g><g fill="#ffffff" fill-opacity="1"><g transform="translate(204.990813, 304.778301)"><g><path d="M 3.5625 0.109375 C 3.226562 0.109375 2.9375 0.0507812 2.6875 -0.0625 C 2.4375 -0.175781 2.195312 -0.390625 1.96875 -0.703125 L 1.96875 0 L 0.625 0 L 0.625 -7.625 L 1.96875 -7.625 L 1.96875 -4.90625 C 2.195312 -5.21875 2.4375 -5.429688 2.6875 -5.546875 C 2.9375 -5.671875 3.226562 -5.734375 3.5625 -5.734375 C 4.050781 -5.734375 4.476562 -5.609375 4.84375 -5.359375 C 5.21875 -5.109375 5.507812 -4.765625 5.71875 -4.328125 C 5.925781 -3.890625 6.03125 -3.382812 6.03125 -2.8125 C 6.03125 -2.238281 5.925781 -1.726562 5.71875 -1.28125 C 5.507812 -0.84375 5.21875 -0.5 4.84375 -0.25 C 4.476562 -0.0078125 4.050781 0.109375 3.5625 0.109375 Z M 3.25 -1.046875 C 3.6875 -1.046875 4.03125 -1.210938 4.28125 -1.546875 C 4.539062 -1.878906 4.671875 -2.300781 4.671875 -2.8125 C 4.671875 -3.320312 4.539062 -3.738281 4.28125 -4.0625 C 4.03125 -4.394531 3.6875 -4.5625 3.25 -4.5625 C 2.820312 -4.5625 2.472656 -4.398438 2.203125 -4.078125 C 1.929688 -3.753906 1.796875 -3.332031 1.796875 -2.8125 C 1.796875 -2.289062 1.929688 -1.863281 2.203125 -1.53125 C 2.472656 -1.207031 2.820312 -1.046875 3.25 -1.046875 Z M 3.25 -1.046875 "/></g></g></g><g fill="#ffffff" fill-opacity="1"><g transform="translate(211.388277, 304.778301)"><g><path d="M 3.234375 0.109375 C 2.660156 0.109375 2.160156 -0.015625 1.734375 -0.265625 C 1.304688 -0.515625 0.972656 -0.851562 0.734375 -1.28125 C 0.492188 -1.71875 0.375 -2.210938 0.375 -2.765625 C 0.375 -3.128906 0.429688 -3.488281 0.546875 -3.84375 C 0.660156 -4.195312 0.832031 -4.515625 1.0625 -4.796875 C 1.300781 -5.085938 1.597656 -5.316406 1.953125 -5.484375 C 2.304688 -5.648438 2.722656 -5.734375 3.203125 -5.734375 C 3.554688 -5.734375 3.898438 -5.675781 4.234375 -5.5625 C 4.578125 -5.445312 4.878906 -5.269531 5.140625 -5.03125 C 5.410156 -4.800781 5.625 -4.5 5.78125 -4.125 C 5.9375 -3.757812 6.015625 -3.320312 6.015625 -2.8125 L 6.015625 -2.53125 L 1.78125 -2.53125 C 1.789062 -2.40625 1.816406 -2.285156 1.859375 -2.171875 C 1.898438 -2.054688 1.941406 -1.957031 1.984375 -1.875 C 2.117188 -1.613281 2.296875 -1.410156 2.515625 -1.265625 C 2.742188 -1.117188 3.003906 -1.046875 3.296875 -1.046875 C 3.609375 -1.046875 3.875 -1.128906 4.09375 -1.296875 C 4.3125 -1.460938 4.460938 -1.660156 4.546875 -1.890625 L 5.9375 -1.890625 C 5.820312 -1.523438 5.644531 -1.191406 5.40625 -0.890625 C 5.175781 -0.585938 4.878906 -0.34375 4.515625 -0.15625 C 4.160156 0.0195312 3.734375 0.109375 3.234375 0.109375 Z M 1.84375 -3.546875 L 4.640625 -3.546875 C 4.628906 -3.617188 4.609375 -3.703125 4.578125 -3.796875 C 4.554688 -3.890625 4.507812 -3.976562 4.4375 -4.0625 C 4.300781 -4.257812 4.128906 -4.40625 3.921875 -4.5 C 3.710938 -4.601562 3.484375 -4.65625 3.234375 -4.65625 C 2.992188 -4.65625 2.769531 -4.601562 2.5625 -4.5 C 2.363281 -4.40625 2.195312 -4.257812 2.0625 -4.0625 C 1.988281 -3.976562 1.9375 -3.890625 1.90625 -3.796875 C 1.875 -3.703125 1.851562 -3.617188 1.84375 -3.546875 Z M 1.84375 -3.546875 "/></g></g></g><g fill="#ffffff" fill-opacity="1"><g transform="translate(217.755758, 304.778301)"><g><path d="M 1.953125 0 L 0.609375 0 L 0.609375 -5.609375 L 1.953125 -5.609375 L 1.953125 -4.9375 C 2.171875 -5.226562 2.410156 -5.429688 2.671875 -5.546875 C 2.929688 -5.671875 3.226562 -5.734375 3.5625 -5.734375 L 3.71875 -5.734375 L 3.71875 -4.4375 L 3.40625 -4.4375 C 3.175781 -4.4375 2.976562 -4.40625 2.8125 -4.34375 C 2.65625 -4.28125 2.519531 -4.195312 2.40625 -4.09375 C 2.257812 -3.945312 2.144531 -3.753906 2.0625 -3.515625 C 1.988281 -3.273438 1.953125 -2.96875 1.953125 -2.59375 Z M 1.953125 0 "/></g></g></g><g fill="#ffffff" fill-opacity="1"><g transform="translate(221.634217, 304.778301)"><g><path d="M 3.046875 0.109375 C 2.617188 0.109375 2.207031 0.0390625 1.8125 -0.09375 C 1.425781 -0.226562 1.101562 -0.441406 0.84375 -0.734375 C 0.582031 -1.035156 0.414062 -1.421875 0.34375 -1.890625 L 1.6875 -1.890625 C 1.769531 -1.585938 1.925781 -1.351562 2.15625 -1.1875 C 2.394531 -1.03125 2.6875 -0.953125 3.03125 -0.953125 C 3.3125 -0.953125 3.546875 -1.007812 3.734375 -1.125 C 3.921875 -1.238281 4.015625 -1.394531 4.015625 -1.59375 C 4.015625 -1.757812 3.953125 -1.890625 3.828125 -1.984375 C 3.710938 -2.085938 3.550781 -2.164062 3.34375 -2.21875 C 3.144531 -2.269531 2.925781 -2.320312 2.6875 -2.375 C 2.445312 -2.414062 2.203125 -2.46875 1.953125 -2.53125 C 1.703125 -2.601562 1.472656 -2.695312 1.265625 -2.8125 C 1.054688 -2.925781 0.890625 -3.082031 0.765625 -3.28125 C 0.640625 -3.476562 0.578125 -3.734375 0.578125 -4.046875 C 0.578125 -4.441406 0.675781 -4.757812 0.875 -5 C 1.082031 -5.25 1.347656 -5.429688 1.671875 -5.546875 C 2.003906 -5.671875 2.363281 -5.734375 2.75 -5.734375 C 3.40625 -5.734375 3.953125 -5.566406 4.390625 -5.234375 C 4.828125 -4.898438 5.097656 -4.425781 5.203125 -3.8125 L 3.9375 -3.8125 C 3.851562 -4.125 3.703125 -4.34375 3.484375 -4.46875 C 3.265625 -4.601562 3.015625 -4.671875 2.734375 -4.671875 C 2.472656 -4.671875 2.265625 -4.617188 2.109375 -4.515625 C 1.953125 -4.410156 1.875 -4.269531 1.875 -4.09375 C 1.875 -3.945312 1.929688 -3.828125 2.046875 -3.734375 C 2.171875 -3.648438 2.328125 -3.582031 2.515625 -3.53125 C 2.710938 -3.488281 2.925781 -3.445312 3.15625 -3.40625 C 3.40625 -3.351562 3.65625 -3.296875 3.90625 -3.234375 C 4.164062 -3.171875 4.40625 -3.082031 4.625 -2.96875 C 4.84375 -2.851562 5.015625 -2.691406 5.140625 -2.484375 C 5.273438 -2.285156 5.34375 -2.023438 5.34375 -1.703125 C 5.34375 -1.148438 5.140625 -0.707031 4.734375 -0.375 C 4.328125 -0.0507812 3.765625 0.109375 3.046875 0.109375 Z M 3.046875 0.109375 "/></g></g></g><g fill="#ffffff" fill-opacity="1"><g transform="translate(227.361951, 304.778301)"><g/></g></g><g fill="#ffffff" fill-opacity="1"><g transform="translate(230.010903, 304.778301)"><g><path d="M 2.234375 1.09375 L 1.125 1.09375 L 1.125 -8.71875 L 2.234375 -8.71875 Z M 2.234375 1.09375 "/></g></g></g><g fill="#ffffff" fill-opacity="1"><g transform="translate(233.339588, 304.778301)"><g><path d="M 3.875 0 L 2.4375 0 L 2.4375 -6.34375 L 0.09375 -6.34375 L 0.09375 -7.625 L 6.1875 -7.625 L 6.1875 -6.34375 L 3.875 -6.34375 Z M 3.875 0 "/></g></g></g><g fill="#ffffff" fill-opacity="1"><g transform="translate(239.067242, 304.778301)"><g><path d="M 1.953125 0 L 0.609375 0 L 0.609375 -5.609375 L 1.953125 -5.609375 L 1.953125 -4.9375 C 2.171875 -5.226562 2.410156 -5.429688 2.671875 -5.546875 C 2.929688 -5.671875 3.226562 -5.734375 3.5625 -5.734375 L 3.71875 -5.734375 L 3.71875 -4.4375 L 3.40625 -4.4375 C 3.175781 -4.4375 2.976562 -4.40625 2.8125 -4.34375 C 2.65625 -4.28125 2.519531 -4.195312 2.40625 -4.09375 C 2.257812 -3.945312 2.144531 -3.753906 2.0625 -3.515625 C 1.988281 -3.273438 1.953125 -2.96875 1.953125 -2.59375 Z M 1.953125 0 "/></g></g></g><g fill="#ffffff" fill-opacity="1"><g transform="translate(242.885711, 304.778301)"><g><path d="M 2.234375 0.109375 C 1.703125 0.109375 1.257812 -0.03125 0.90625 -0.3125 C 0.5625 -0.59375 0.390625 -1.003906 0.390625 -1.546875 C 0.390625 -1.835938 0.445312 -2.085938 0.5625 -2.296875 C 0.675781 -2.515625 0.832031 -2.6875 1.03125 -2.8125 C 1.207031 -2.945312 1.410156 -3.050781 1.640625 -3.125 C 1.867188 -3.195312 2.101562 -3.253906 2.34375 -3.296875 L 4.015625 -3.609375 C 3.992188 -3.953125 3.898438 -4.21875 3.734375 -4.40625 C 3.566406 -4.582031 3.316406 -4.671875 2.984375 -4.671875 C 2.734375 -4.671875 2.507812 -4.59375 2.3125 -4.4375 C 2.113281 -4.289062 1.988281 -4.082031 1.9375 -3.8125 L 0.59375 -3.8125 C 0.664062 -4.257812 0.820312 -4.617188 1.0625 -4.890625 C 1.300781 -5.171875 1.59375 -5.378906 1.9375 -5.515625 C 2.28125 -5.660156 2.632812 -5.734375 3 -5.734375 C 3.320312 -5.734375 3.632812 -5.6875 3.9375 -5.59375 C 4.238281 -5.5 4.492188 -5.351562 4.703125 -5.15625 C 4.921875 -4.96875 5.078125 -4.75 5.171875 -4.5 C 5.265625 -4.25 5.316406 -3.988281 5.328125 -3.71875 C 5.347656 -3.445312 5.359375 -3.179688 5.359375 -2.921875 L 5.359375 0 L 4.015625 0 L 4.015625 -0.765625 C 3.867188 -0.515625 3.695312 -0.328125 3.5 -0.203125 C 3.320312 -0.0859375 3.125 -0.0078125 2.90625 0.03125 C 2.695312 0.0820312 2.472656 0.109375 2.234375 0.109375 Z M 2.5625 -0.953125 C 2.820312 -0.953125 3.0625 -1.003906 3.28125 -1.109375 C 3.570312 -1.253906 3.769531 -1.445312 3.875 -1.6875 C 3.976562 -1.9375 4.035156 -2.25 4.046875 -2.625 L 2.703125 -2.34375 C 2.503906 -2.3125 2.34375 -2.269531 2.21875 -2.21875 C 2.101562 -2.164062 2.003906 -2.101562 1.921875 -2.03125 C 1.867188 -1.976562 1.820312 -1.914062 1.78125 -1.84375 C 1.75 -1.769531 1.734375 -1.6875 1.734375 -1.59375 C 1.734375 -1.382812 1.8125 -1.222656 1.96875 -1.109375 C 2.125 -1.003906 2.320312 -0.953125 2.5625 -0.953125 Z M 2.5625 -0.953125 "/></g></g></g><g fill="#ffffff" fill-opacity="1"><g transform="translate(248.763385, 304.778301)"><g><path d="M 3.234375 0.109375 C 2.671875 0.109375 2.171875 -0.0078125 1.734375 -0.25 C 1.304688 -0.5 0.972656 -0.84375 0.734375 -1.28125 C 0.492188 -1.726562 0.375 -2.25 0.375 -2.84375 C 0.375 -3.40625 0.492188 -3.898438 0.734375 -4.328125 C 0.972656 -4.765625 1.304688 -5.109375 1.734375 -5.359375 C 2.160156 -5.609375 2.660156 -5.734375 3.234375 -5.734375 C 3.898438 -5.734375 4.46875 -5.554688 4.9375 -5.203125 C 5.414062 -4.859375 5.722656 -4.394531 5.859375 -3.8125 L 4.390625 -3.8125 C 4.210938 -4.351562 3.828125 -4.625 3.234375 -4.625 C 2.796875 -4.625 2.441406 -4.460938 2.171875 -4.140625 C 1.898438 -3.816406 1.765625 -3.382812 1.765625 -2.84375 C 1.765625 -2.28125 1.898438 -1.828125 2.171875 -1.484375 C 2.441406 -1.148438 2.796875 -0.984375 3.234375 -0.984375 C 3.554688 -0.984375 3.816406 -1.0625 4.015625 -1.21875 C 4.210938 -1.382812 4.347656 -1.609375 4.421875 -1.890625 L 5.875 -1.890625 C 5.789062 -1.472656 5.625 -1.113281 5.375 -0.8125 C 5.132812 -0.507812 4.828125 -0.28125 4.453125 -0.125 C 4.085938 0.03125 3.679688 0.109375 3.234375 0.109375 Z M 3.234375 0.109375 "/></g></g></g><g fill="#ffffff" fill-opacity="1"><g transform="translate(254.94094, 304.778301)"><g><path d="M 3.484375 0 L 2.375 0 C 1.957031 0 1.632812 -0.09375 1.40625 -0.28125 C 1.175781 -0.476562 1.0625 -0.796875 1.0625 -1.234375 L 1.0625 -4.53125 L 0.234375 -4.53125 L 0.234375 -5.609375 L 1.0625 -5.609375 L 1.0625 -7.625 L 2.40625 -7.625 L 2.40625 -5.609375 L 3.484375 -5.609375 L 3.484375 -4.53125 L 2.40625 -4.53125 L 2.40625 -1.640625 C 2.40625 -1.492188 2.429688 -1.367188 2.484375 -1.265625 C 2.535156 -1.171875 2.664062 -1.125 2.875 -1.125 L 3.484375 -1.125 Z M 3.484375 0 "/></g></g></g><g fill="#ffffff" fill-opacity="1"><g transform="translate(258.739439, 304.778301)"><g><path d="M 1.296875 -6.234375 C 1.066406 -6.234375 0.867188 -6.300781 0.703125 -6.4375 C 0.535156 -6.582031 0.453125 -6.769531 0.453125 -7 C 0.453125 -7.226562 0.535156 -7.410156 0.703125 -7.546875 C 0.867188 -7.691406 1.066406 -7.765625 1.296875 -7.765625 C 1.515625 -7.765625 1.707031 -7.691406 1.875 -7.546875 C 2.039062 -7.410156 2.125 -7.226562 2.125 -7 C 2.125 -6.769531 2.039062 -6.582031 1.875 -6.4375 C 1.707031 -6.300781 1.515625 -6.234375 1.296875 -6.234375 Z M 1.953125 0 L 0.609375 0 L 0.609375 -5.609375 L 1.953125 -5.609375 Z M 1.953125 0 "/></g></g></g><g fill="#ffffff" fill-opacity="1"><g transform="translate(261.288428, 304.778301)"><g><path d="M 3.25 0.109375 C 2.6875 0.109375 2.1875 -0.0078125 1.75 -0.25 C 1.320312 -0.5 0.984375 -0.84375 0.734375 -1.28125 C 0.492188 -1.726562 0.375 -2.25 0.375 -2.84375 C 0.375 -3.40625 0.492188 -3.898438 0.734375 -4.328125 C 0.984375 -4.765625 1.320312 -5.109375 1.75 -5.359375 C 2.1875 -5.609375 2.6875 -5.734375 3.25 -5.734375 C 3.8125 -5.734375 4.3125 -5.609375 4.75 -5.359375 C 5.1875 -5.109375 5.523438 -4.765625 5.765625 -4.328125 C 6.003906 -3.898438 6.125 -3.40625 6.125 -2.84375 C 6.125 -2.257812 6.003906 -1.742188 5.765625 -1.296875 C 5.523438 -0.859375 5.1875 -0.515625 4.75 -0.265625 C 4.320312 -0.015625 3.820312 0.109375 3.25 0.109375 Z M 3.25 -1.046875 C 3.6875 -1.046875 4.039062 -1.210938 4.3125 -1.546875 C 4.59375 -1.878906 4.734375 -2.3125 4.734375 -2.84375 C 4.734375 -3.175781 4.671875 -3.472656 4.546875 -3.734375 C 4.421875 -3.992188 4.25 -4.195312 4.03125 -4.34375 C 3.8125 -4.488281 3.550781 -4.5625 3.25 -4.5625 C 2.957031 -4.5625 2.695312 -4.488281 2.46875 -4.34375 C 2.25 -4.195312 2.078125 -3.992188 1.953125 -3.734375 C 1.828125 -3.472656 1.765625 -3.175781 1.765625 -2.84375 C 1.765625 -2.3125 1.898438 -1.878906 2.171875 -1.546875 C 2.453125 -1.210938 2.8125 -1.046875 3.25 -1.046875 Z M 3.25 -1.046875 "/></g></g></g><g fill="#ffffff" fill-opacity="1"><g transform="translate(267.775865, 304.778301)"><g><path d="M 1.953125 0 L 0.609375 0 L 0.609375 -5.609375 L 1.953125 -5.609375 L 1.953125 -4.90625 C 2.179688 -5.21875 2.421875 -5.429688 2.671875 -5.546875 C 2.921875 -5.671875 3.191406 -5.734375 3.484375 -5.734375 C 4.003906 -5.734375 4.394531 -5.640625 4.65625 -5.453125 C 4.914062 -5.273438 5.109375 -5.054688 5.234375 -4.796875 C 5.347656 -4.546875 5.414062 -4.289062 5.4375 -4.03125 C 5.457031 -3.78125 5.46875 -3.515625 5.46875 -3.234375 L 5.46875 0 L 4.125 0 L 4.125 -3.25 C 4.125 -3.539062 4.097656 -3.769531 4.046875 -3.9375 C 4.003906 -4.113281 3.9375 -4.257812 3.84375 -4.375 C 3.6875 -4.539062 3.453125 -4.625 3.140625 -4.625 C 2.753906 -4.625 2.472656 -4.507812 2.296875 -4.28125 C 2.179688 -4.144531 2.09375 -3.96875 2.03125 -3.75 C 1.976562 -3.53125 1.953125 -3.234375 1.953125 -2.859375 Z M 1.953125 0 "/></g></g></g></svg>