<svg xmlns="http://www.w3.org/2000/svg" xmlns:xlink="http://www.w3.org/1999/xlink" width="500" zoomAndPan="magnify" viewBox="0 0 375 374.999991" height="500" preserveAspectRatio="xMidYMid meet" version="1.0"><defs><clipPath id="95356e8b6b"><path d="M 114.90625 163 L 260.40625 163 L 260.40625 262.5 L 114.90625 262.5 Z M 114.90625 163 " clip-rule="nonzero"/></clipPath><clipPath id="88d403bc34"><path d="M 115 163.664062 L 202 163.664062 L 202 262.5 L 115 262.5 Z M 115 163.664062 " clip-rule="nonzero"/></clipPath><clipPath id="66cf4c80c5"><path d="M 257.003906 262.5 L 117.992188 262.5 C 115.519531 262.5 114.054688 259.976562 115.445312 258.113281 L 184.949219 164.894531 C 185.523438 164.125 186.476562 163.664062 187.496094 163.664062 C 188.519531 163.664062 189.472656 164.125 190.046875 164.894531 L 259.550781 258.113281 C 260.941406 259.976562 259.476562 262.5 257.003906 262.5 Z M 257.003906 262.5 " clip-rule="nonzero"/></clipPath><clipPath id="0cdfdce578"><path d="M 169 112.5 L 206 112.5 L 206 149 L 169 149 Z M 169 112.5 " clip-rule="nonzero"/></clipPath></defs><g clip-path="url(#95356e8b6b)"><path fill="#3a3db5" d="M 257.003906 262.5 L 117.992188 262.5 C 115.519531 262.5 114.054688 259.976562 115.445312 258.113281 L 184.949219 164.894531 C 185.523438 164.125 186.476562 163.664062 187.496094 163.664062 C 188.519531 163.664062 189.472656 164.125 190.046875 164.894531 L 259.550781 258.113281 C 260.941406 259.976562 259.476562 262.5 257.003906 262.5 Z M 257.003906 262.5 " fill-opacity="1" fill-rule="nonzero"/></g><g clip-path="url(#88d403bc34)"><g clip-path="url(#66cf4c80c5)"><path fill="#22246b" d="M 173.886719 269.707031 C 154.480469 271.199219 135 268.667969 115.722656 266.140625 C 113.636719 255.96875 117.226562 245.519531 122.078125 236.160156 C 126.929688 226.800781 133.097656 217.960938 136.683594 208.140625 C 140.257812 198.347656 141.207031 187.734375 146.273438 178.503906 C 149.273438 173.042969 153.71875 168.265625 159.054688 164.582031 C 162.953125 161.890625 167.425781 160.011719 172.058594 158.621094 C 176.476562 157.296875 180.78125 155.207031 184.589844 158.558594 C 188.109375 161.660156 188.328125 166.832031 186.878906 171.09375 C 185.433594 175.355469 182.632812 179.125 180.773438 183.253906 C 178.910156 187.378906 178.085938 192.3125 180.570312 196.15625 C 184.015625 201.484375 191.601562 202.507812 196.664062 206.0625 C 202.847656 210.398438 202.164062 217.246094 198.824219 223.007812 C 195.617188 228.527344 191.441406 232.011719 186.175781 236.015625 C 184.613281 237.207031 182.054688 238.582031 181.382812 240.433594 C 180.648438 242.476562 182.621094 244.617188 184.855469 245.308594 C 188.804688 246.53125 195.519531 244.429688 197.933594 248.617188 C 199.957031 252.125 194.480469 258.726562 192.007812 261.210938 C 187.507812 265.722656 180.558594 269.191406 173.886719 269.703125 Z M 173.886719 269.707031 " fill-opacity="1" fill-rule="nonzero"/></g></g><g clip-path="url(#0cdfdce578)"><path fill="#ffbd59" d="M 205.476562 130.480469 C 205.476562 131.070312 205.449219 131.65625 205.390625 132.242188 C 205.332031 132.828125 205.246094 133.410156 205.132812 133.988281 C 205.019531 134.566406 204.875 135.136719 204.703125 135.699219 C 204.53125 136.265625 204.335938 136.816406 204.109375 137.363281 C 203.882812 137.90625 203.632812 138.4375 203.355469 138.957031 C 203.078125 139.476562 202.773438 139.980469 202.449219 140.46875 C 202.121094 140.960938 201.769531 141.433594 201.398438 141.886719 C 201.023438 142.34375 200.628906 142.777344 200.210938 143.195312 C 199.796875 143.609375 199.359375 144.007812 198.90625 144.378906 C 198.449219 144.753906 197.976562 145.105469 197.488281 145.429688 C 196.996094 145.757812 196.492188 146.058594 195.972656 146.339844 C 195.453125 146.617188 194.921875 146.867188 194.378906 147.09375 C 193.835938 147.316406 193.28125 147.515625 192.71875 147.6875 C 192.152344 147.859375 191.582031 148 191.003906 148.117188 C 190.429688 148.230469 189.847656 148.316406 189.261719 148.375 C 188.675781 148.433594 188.085938 148.460938 187.496094 148.460938 C 186.910156 148.460938 186.320312 148.433594 185.734375 148.375 C 185.148438 148.316406 184.566406 148.230469 183.992188 148.117188 C 183.414062 148 182.84375 147.859375 182.277344 147.6875 C 181.714844 147.515625 181.160156 147.316406 180.617188 147.09375 C 180.074219 146.867188 179.542969 146.617188 179.023438 146.339844 C 178.503906 146.058594 178 145.757812 177.507812 145.429688 C 177.019531 145.105469 176.546875 144.753906 176.089844 144.378906 C 175.636719 144.007812 175.199219 143.609375 174.785156 143.195312 C 174.367188 142.777344 173.972656 142.34375 173.597656 141.886719 C 173.226562 141.433594 172.875 140.960938 172.546875 140.46875 C 172.222656 139.980469 171.917969 139.476562 171.640625 138.957031 C 171.363281 138.4375 171.113281 137.90625 170.886719 137.363281 C 170.660156 136.816406 170.464844 136.265625 170.292969 135.699219 C 170.121094 135.136719 169.976562 134.566406 169.863281 133.988281 C 169.75 133.410156 169.664062 132.828125 169.605469 132.242188 C 169.546875 131.65625 169.519531 131.070312 169.519531 130.480469 C 169.519531 129.890625 169.546875 129.304688 169.605469 128.71875 C 169.664062 128.132812 169.75 127.550781 169.863281 126.972656 C 169.976562 126.394531 170.121094 125.824219 170.292969 125.261719 C 170.464844 124.699219 170.660156 124.144531 170.886719 123.601562 C 171.113281 123.054688 171.363281 122.523438 171.640625 122.003906 C 171.917969 121.484375 172.222656 120.980469 172.546875 120.492188 C 172.875 120.003906 173.226562 119.53125 173.597656 119.074219 C 173.972656 118.621094 174.367188 118.183594 174.785156 117.765625 C 175.199219 117.351562 175.636719 116.957031 176.089844 116.582031 C 176.546875 116.207031 177.019531 115.859375 177.507812 115.53125 C 178 115.203125 178.503906 114.902344 179.023438 114.625 C 179.542969 114.347656 180.074219 114.09375 180.617188 113.871094 C 181.160156 113.644531 181.714844 113.445312 182.277344 113.273438 C 182.84375 113.105469 183.414062 112.960938 183.992188 112.847656 C 184.566406 112.730469 185.148438 112.644531 185.734375 112.585938 C 186.320312 112.53125 186.910156 112.5 187.496094 112.5 C 188.085938 112.5 188.675781 112.53125 189.261719 112.585938 C 189.847656 112.644531 190.429688 112.730469 191.003906 112.847656 C 191.582031 112.960938 192.152344 113.105469 192.71875 113.273438 C 193.28125 113.445312 193.835938 113.644531 194.378906 113.871094 C 194.921875 114.09375 195.453125 114.347656 195.972656 114.625 C 196.492188 114.902344 196.996094 115.203125 197.488281 115.53125 C 197.976562 115.859375 198.449219 116.207031 198.90625 116.582031 C 199.359375 116.957031 199.796875 117.351562 200.210938 117.765625 C 200.628906 118.183594 201.023438 118.621094 201.398438 119.074219 C 201.769531 119.53125 202.121094 120.003906 202.449219 120.492188 C 202.773438 120.980469 203.078125 121.484375 203.355469 122.003906 C 203.632812 122.523438 203.882812 123.054688 204.109375 123.601562 C 204.335938 124.144531 204.53125 124.699219 204.703125 125.261719 C 204.875 125.824219 205.019531 126.394531 205.132812 126.972656 C 205.246094 127.550781 205.332031 128.132812 205.390625 128.71875 C 205.449219 129.304688 205.476562 129.890625 205.476562 130.480469 Z M 205.476562 130.480469 " fill-opacity="1" fill-rule="nonzero"/></g></svg>