<svg viewBox="0 0 375 375"><defs><clipPath id="vant-vant-logobbg__a"><path d="M114.906 125h145.5v99.055h-145.5Zm0 0"/></clipPath><clipPath id="vant-vant-logobbg__b"><path d="M115 125.223h87v98.832h-87Zm0 0"/></clipPath><clipPath id="vant-vant-logobbg__c"><path d="M257.004 224.055H117.992c-2.472 0-3.937-2.52-2.547-4.387l69.504-93.215c.574-.77 1.528-1.23 2.547-1.23 1.024 0 1.977.46 2.55 1.23l69.505 93.215c1.39 1.867-.074 4.387-2.547 4.387m0 0"/></clipPath><clipPath id="vant-vant-logobbg__d"><path d="M169 74.055h37V111h-37Zm0 0"/></clipPath></defs><g clip-path="url(#vant-vant-logobbg__a)"><path fill="#fff" d="M257.004 224.055H117.992c-2.472 0-3.937-2.52-2.547-4.387l69.504-93.215c.574-.77 1.528-1.23 2.547-1.23 1.024 0 1.977.46 2.55 1.23l69.505 93.215c1.39 1.867-.074 4.387-2.547 4.387m0 0"/></g><g clip-path="url(#vant-vant-logobbg__b)"><g clip-path="url(#vant-vant-logobbg__c)"><path fill="#b4b4b4" d="M173.887 231.262c-19.407 1.492-38.887-1.04-58.164-3.563-2.086-10.176 1.504-20.62 6.355-29.98s11.02-18.203 14.606-28.024c3.574-9.789 4.523-20.406 9.59-29.636 3-5.461 7.445-10.235 12.78-13.918 3.9-2.696 8.372-4.575 13.005-5.961 4.418-1.328 8.722-3.418 12.53-.063 3.52 3.102 3.74 8.274 2.29 12.535-1.445 4.262-4.246 8.028-6.106 12.157-1.863 4.125-2.687 9.058-.203 12.902 3.446 5.332 11.032 6.355 16.094 9.906 6.184 4.34 5.5 11.188 2.16 16.946-3.207 5.519-7.383 9.007-12.648 13.011-1.563 1.188-4.121 2.567-4.793 4.418-.735 2.043 1.238 4.184 3.472 4.875 3.95 1.223 10.665-.883 13.079 3.309 2.023 3.504-3.454 10.105-5.926 12.59-4.5 4.515-11.45 7.98-18.121 8.496m0 0"/></g></g><g clip-path="url(#vant-vant-logobbg__d)"><path fill="#ffbd59" d="M205.477 92.04c0 .585-.028 1.175-.086 1.76a19 19 0 0 1-.258 1.747 17.9 17.9 0 0 1-1.777 4.965q-.419.778-.907 1.515-.494.733-1.05 1.418-.562.681-1.188 1.305c-.414.418-.852.813-1.305 1.188q-.686.556-1.418 1.05a18 18 0 0 1-3.11 1.66q-.814.341-1.66.594-.848.26-1.714.43a18 18 0 0 1-3.508.344 17.7 17.7 0 0 1-3.504-.344 18 18 0 0 1-1.715-.43 17 17 0 0 1-1.66-.594 18 18 0 0 1-3.11-1.66q-.731-.494-1.417-1.05-.681-.563-1.305-1.188a18 18 0 0 1-1.187-1.305q-.558-.686-1.051-1.418a19 19 0 0 1-.906-1.515q-.416-.78-.754-1.594a18 18 0 0 1-1.024-3.371q-.17-.867-.258-1.746a18 18 0 0 1-.085-1.762 18 18 0 0 1 .343-3.508q.172-.866.43-1.715a18 18 0 0 1 1.348-3.254c.277-.519.582-1.023.906-1.515q.493-.733 1.05-1.414.563-.687 1.188-1.309a17 17 0 0 1 1.305-1.183q.686-.563 1.418-1.055c.492-.324.996-.629 1.515-.906q.78-.416 1.594-.754a18 18 0 0 1 3.375-1.024q.862-.17 1.742-.257a18 18 0 0 1 1.762-.086 18 18 0 0 1 3.508.343 17.9 17.9 0 0 1 4.969 1.777q.778.419 1.515.907.733.492 1.418 1.055.681.556 1.305 1.183.626.622 1.187 1.309.559.68 1.051 1.414c.324.492.63.996.906 1.516q.416.778.754 1.593a18 18 0 0 1 1.024 3.375q.17.862.258 1.742.087.88.086 1.766m0 0"/></g><path fill="#fff" d="M136.56 290.526h-8.563l-16.578-44.89h11.531l9.282 28.328 9.453-28.328H153.2Zm29.522.875q-6.315.002-10.516-3.39-4.204-3.404-4.203-9.813-.002-3.59 1.39-6.109c.938-1.688 2.18-3.063 3.735-4.125 1.438-1.02 3.07-1.82 4.907-2.406a53 53 0 0 1 5.578-1.438l13.359-2.484q-.158-4.155-2.156-6.328-2.003-2.157-6.016-2.157-3.035.001-5.39 1.813-2.362 1.799-3 4.984h-10.735q.81-5.278 3.688-8.64a17.7 17.7 0 0 1 7-5 22.9 22.9 0 0 1 8.53-1.64q3.92 0 7.517 1.124c2.406.75 4.43 1.899 6.078 3.438 1.757 1.554 3.015 3.328 3.765 5.328s1.188 4.086 1.313 6.25c.133 2.156.203 4.273.203 6.343v23.375h-10.797v-6.078q-1.687 2.955-4.078 4.485-2.08 1.36-4.688 1.906-2.595.562-5.484.562m2.64-8.484q3.2 0 5.766-1.281c2.344-1.164 3.926-2.735 4.75-4.703.832-1.977 1.274-4.438 1.328-7.375l-10.718 2.156q-2.332.409-3.813 1.047-1.47.644-2.437 1.515c-.43.43-.778.938-1.047 1.532-.262.586-.39 1.25-.39 2q0 2.472 1.874 3.797 1.887 1.312 4.688 1.312m37.857 7.609h-10.813v-44.89h10.813v5.672q2.718-3.762 5.672-5.203c1.976-.957 4.172-1.438 6.578-1.438q6.153 0 9.312 2.203 3.17 2.204 4.688 5.328 1.359 2.954 1.594 6.032c.164 2.054.25 4.203.25 6.453v25.843h-10.735v-26.015q0-3.436-.562-5.547c-.368-1.414-.922-2.55-1.672-3.406-1.281-1.332-3.18-2-5.688-2q-4.564 0-6.797 2.718-1.36 1.596-2 4.235c-.43 1.762-.64 4.137-.64 7.125Zm55.13 0h-8.875q-4.968.001-7.734-2.312c-1.836-1.55-2.75-4.063-2.75-7.531v-26.407h-6.64v-8.64h6.64v-16.172h10.797v16.172h8.656v8.64h-8.656v23.125q-.002 1.769.593 2.97.61 1.188 3.094 1.187h4.875Zm-151.813 14.252h-1.578l-2.688-7.625h1.516l1.969 6.047 1.969-6.047h1.5Zm4.305.11c-.531 0-.977-.14-1.328-.422q-.516-.421-.516-1.235-.002-.434.172-.75.17-.327.469-.515.264-.2.61-.313.339-.106.702-.172l1.672-.312q-.035-.516-.281-.797-.252-.265-.75-.266c-.25 0-.477.079-.672.235a.97.97 0 0 0-.375.625h-1.344q.105-.669.47-1.078.357-.422.874-.625a2.7 2.7 0 0 1 1.063-.22q.48 0 .937.142c.3.093.555.242.766.437q.328.281.468.656.14.376.157.782.03.41.031.796v2.922h-1.344v-.765q-.222.375-.515.562c-.18.117-.375.195-.594.235q-.316.076-.672.078m.328-1.063q.389.001.719-.156.434-.216.594-.578.153-.375.171-.938l-1.343.282q-.299.047-.485.125a1.3 1.3 0 0 0-.297.187.8.8 0 0 0-.14.188.6.6 0 0 0-.047.25q0 .314.234.484c.157.105.352.156.594.156m6.08.953h-.874q-.628 0-.969-.28c-.219-.196-.328-.517-.328-.954v-6.39h1.344v6c0 .187.035.32.11.39q.105.11.359.11h.359Zm2.767.11q-1.301.002-1.75-.922a2.5 2.5 0 0 1-.188-.61 7 7 0 0 1-.047-.953v-3.234h1.36v3.234q0 .44.062.703.062.27.203.422.234.251.703.25.576.001.86-.343.168-.201.25-.532.077-.327.078-.89v-2.844h1.344v5.61h-1.344v-.704c-.211.281-.434.492-.672.625a1.85 1.85 0 0 1-.86.188m6.7 0q-.861 0-1.5-.375a2.63 2.63 0 0 1-1-1.016q-.362-.654-.36-1.484-.002-.546.173-1.078.17-.53.515-.954.358-.435.89-.687c.352-.164.77-.25 1.25-.25q.528.001 1.032.172.515.175.906.531.406.344.641.906.234.55.234 1.313v.281h-4.234q.013.188.078.36.06.174.125.296c.133.262.313.465.531.61a1.4 1.4 0 0 0 .782.218q.469.001.796-.25c.22-.164.368-.363.454-.593h1.39a3.1 3.1 0 0 1-.531 1q-.345.455-.89.734-.533.265-1.282.266m-1.39-3.657h2.796a2 2 0 0 0-.062-.25.7.7 0 0 0-.14-.265 1.26 1.26 0 0 0-.516-.438 1.56 1.56 0 0 0-1.36 0q-.3.143-.5.438a.8.8 0 0 0-.156.265c-.031.094-.055.18-.063.25m9.408 4.641h-1.11v-9.812h1.11Zm5.321-1.094h-1.516l2.703-7.625h1.579l2.687 7.625h-1.516l-.515-1.562h-2.906Zm1.969-6.062-1.047 3.234h2.094Zm6.644 6.172q-.843.001-1.5-.36a2.6 2.6 0 0 1-1-1.03c-.242-.446-.359-.97-.359-1.563 0-.563.117-1.055.36-1.485q.356-.656 1-1.031.638-.375 1.5-.375c.663 0 1.234.18 1.703.531q.715.517.921 1.39h-1.468c-.18-.538-.563-.812-1.157-.812q-.657.002-1.062.485c-.274.324-.406.757-.406 1.297 0 .562.132 1.015.406 1.359.27.336.625.5 1.062.5q.481 0 .782-.234a1.3 1.3 0 0 0 .406-.672h1.453c-.086.418-.25.777-.5 1.078a2.26 2.26 0 0 1-.922.687 3.1 3.1 0 0 1-1.219.235m6.428-.11h-1.11q-.627 0-.968-.28c-.23-.196-.344-.517-.344-.954v-3.297h-.828v-1.078h.828v-2.016h1.344v2.016h1.078v1.078h-1.078v2.89c0 .15.023.274.078.376q.075.14.39.14h.61Zm1.611-6.234a.9.9 0 0 1-.594-.203.7.7 0 0 1-.25-.563.67.67 0 0 1 .25-.547.87.87 0 0 1 .594-.218.86.86 0 0 1 .578.218.68.68 0 0 1 .25.547.72.72 0 0 1-.25.563.9.9 0 0 1-.578.203m.656 6.234h-1.344v-5.61h1.344Zm3.846.11q-.843.001-1.5-.36a2.74 2.74 0 0 1-1.016-1.03c-.242-.446-.359-.97-.359-1.563 0-.563.117-1.055.36-1.485.25-.437.585-.781 1.015-1.031q.657-.375 1.5-.375.844 0 1.5.375.655.375 1.016 1.031c.238.43.36.922.36 1.485q-.002.878-.36 1.546a2.63 2.63 0 0 1-1.016 1.032q-.645.375-1.5.375m0-1.157a1.3 1.3 0 0 0 1.063-.5q.42-.499.421-1.296 0-.499-.187-.891a1.5 1.5 0 0 0-.516-.61 1.4 1.4 0 0 0-.78-.218q-.442 0-.782.219a1.5 1.5 0 0 0-.516.609 2.04 2.04 0 0 0-.187.89q-.002.798.406 1.297c.281.336.64.5 1.078.5m5.191 1.047h-1.344v-5.61h1.344v.704c.226-.312.468-.523.718-.64q.374-.188.813-.188.78 0 1.172.281.389.27.578.656.169.377.203.766.03.375.031.797v3.234h-1.343v-3.25q-.001-.435-.079-.687a1.1 1.1 0 0 0-.203-.438c-.156-.164-.39-.25-.703-.25q-.58.002-.844.344a1.4 1.4 0 0 0-.265.531c-.055.22-.078.516-.078.89Zm8.947 1.094h-1.109v-9.812h1.11Zm5.869-1.094h-1.438v-7.625h1.61l3.14 5.453v-5.453h1.438v7.625h-1.64l-3.11-5.468Zm7.955.11q-1.301.002-1.75-.922a2.5 2.5 0 0 1-.188-.61 7 7 0 0 1-.047-.953v-3.234h1.36v3.234q-.001.44.062.703c.039.18.11.32.203.422q.234.251.703.25.576.001.86-.343.168-.201.25-.532.077-.327.078-.89v-2.844h1.343v5.61h-1.343v-.704c-.211.281-.434.492-.672.625a1.85 1.85 0 0 1-.86.188m5.418-.11h-1.343v-5.61h1.343v.704c.227-.3.47-.516.72-.64q.387-.188.812-.188.561 0 .953.234.387.222.515.672.28-.466.688-.687.42-.219.969-.22.95 0 1.39.563c.301.368.453.86.453 1.485v3.687h-1.359v-3.515q0-.574-.219-.844-.222-.265-.656-.266a.9.9 0 0 0-.39.078.8.8 0 0 0-.282.204 1.3 1.3 0 0 0-.265.562 3.5 3.5 0 0 0-.079.813v2.968h-1.343v-3.515q0-.561-.235-.828-.234-.282-.656-.282a.84.84 0 0 0-.672.297 1.24 1.24 0 0 0-.265.5q-.08.315-.079.86Zm10.606.11c-.336 0-.625-.059-.875-.172s-.492-.328-.718-.64v.702h-1.344v-7.625h1.344v2.72c.226-.313.468-.524.718-.642q.374-.187.875-.187.732 0 1.282.375c.375.25.664.594.875 1.031q.311.658.312 1.516 0 .862-.312 1.531c-.211.438-.5.781-.875 1.031q-.55.362-1.282.36m-.312-1.157c.437 0 .781-.164 1.031-.5q.388-.498.39-1.265-.002-.763-.39-1.25-.375-.499-1.031-.5c-.43 0-.778.164-1.047.484q-.408.486-.406 1.266-.002.784.406 1.281.404.485 1.047.484m6.382 1.157q-.862 0-1.5-.375a2.63 2.63 0 0 1-1-1.016c-.243-.437-.36-.93-.36-1.484q-.002-.546.172-1.078.17-.53.516-.954.357-.435.89-.687c.352-.164.77-.25 1.25-.25q.528.001 1.032.172.514.175.906.531.406.344.64.906.235.55.235 1.313v.281h-4.234q.012.188.078.36.06.174.125.296c.132.262.312.465.53.61q.342.22.782.218.469.001.797-.25a1.3 1.3 0 0 0 .453-.593h1.39a3.1 3.1 0 0 1-.53 1q-.346.455-.891.734-.532.265-1.281.266m-1.391-3.657h2.797a2 2 0 0 0-.063-.25.7.7 0 0 0-.14-.265 1.26 1.26 0 0 0-.516-.438 1.56 1.56 0 0 0-1.36 0q-.298.143-.5.438a.8.8 0 0 0-.155.265c-.032.094-.055.18-.063.25m6.477 3.547h-1.344v-5.61h1.344v.673q.327-.434.719-.61.386-.187.89-.187h.157v1.297h-.313q-.346 0-.594.094a1.4 1.4 0 0 0-.406.25 1.5 1.5 0 0 0-.344.578q-.11.361-.11.922Zm4.972.11q-.644-.002-1.234-.203a2.24 2.24 0 0 1-.969-.641q-.394-.452-.5-1.156h1.344q.123.456.468.703.36.234.875.234.423.002.704-.172.28-.17.28-.468a.46.46 0 0 0-.187-.391 1.2 1.2 0 0 0-.484-.234q-.3-.075-.656-.157a9 9 0 0 1-.735-.156q-.376-.105-.687-.281a1.3 1.3 0 0 1-.5-.469q-.188-.294-.188-.766 0-.59.297-.953.31-.373.797-.547a3 3 0 0 1 1.078-.187q.984.001 1.64.5.656.503.813 1.422h-1.265q-.128-.469-.453-.656a1.4 1.4 0 0 0-.75-.204c-.262 0-.47.055-.625.157a.49.49 0 0 0-.235.422c0 .148.055.265.172.359q.187.128.469.203.294.065.64.125.375.08.75.172.388.094.72.266.327.175.515.484.201.3.203.781 0 .831-.61 1.328-.609.486-1.687.485m7.564.984h-1.11v-9.812h1.11Zm4.97-1.094h-1.438v-6.343h-2.344v-1.282h6.094v1.282h-2.312Zm3.805 0h-1.343v-5.61h1.343v.673c.22-.29.457-.492.72-.61q.386-.187.89-.187h.156v1.297h-.313q-.347 0-.593.094a1.4 1.4 0 0 0-.407.25 1.5 1.5 0 0 0-.343.578q-.11.361-.11.922Zm4.1.11q-.798 0-1.328-.422-.516-.421-.516-1.235-.002-.434.172-.75.17-.327.469-.515.264-.2.61-.313.339-.106.702-.172l1.672-.312q-.035-.516-.28-.797-.254-.265-.75-.266c-.25 0-.477.079-.673.235a.97.97 0 0 0-.375.625h-1.344q.105-.669.47-1.078.357-.422.874-.625a2.7 2.7 0 0 1 1.063-.22q.48 0 .937.142c.301.093.555.242.766.437q.328.281.469.656.139.376.156.782.03.41.031.796v2.922h-1.344v-.765q-.222.375-.515.562c-.18.117-.375.195-.594.235q-.316.076-.672.078m.328-1.063q.389.001.719-.156.434-.216.594-.578.153-.375.172-.938l-1.344.282q-.299.047-.485.125a1.3 1.3 0 0 0-.296.187.8.8 0 0 0-.141.188.6.6 0 0 0-.047.25q0 .314.234.484c.157.105.352.156.594.156m6.55 1.063q-.844.001-1.5-.36a2.6 2.6 0 0 1-1-1.03c-.242-.446-.36-.97-.36-1.563 0-.563.118-1.055.36-1.485q.356-.656 1-1.031.639-.375 1.5-.375c.664 0 1.234.18 1.703.531q.715.517.922 1.39h-1.469c-.18-.538-.562-.812-1.156-.812q-.657.002-1.063.485-.408.487-.406 1.297-.002.843.406 1.359c.27.336.625.5 1.063.5q.481 0 .781-.234a1.3 1.3 0 0 0 .406-.672h1.453c-.086.418-.25.777-.5 1.078a2.26 2.26 0 0 1-.921.687 3.1 3.1 0 0 1-1.22.235m6.428-.11h-1.11q-.626 0-.968-.28c-.23-.196-.344-.517-.344-.954v-3.297h-.828v-1.078h.828v-2.016h1.344v2.016h1.078v1.078h-1.078v2.89q-.001.224.078.376.076.14.39.14h.61Zm1.611-6.234a.9.9 0 0 1-.593-.203.7.7 0 0 1-.25-.563.67.67 0 0 1 .25-.547.87.87 0 0 1 .593-.218.86.86 0 0 1 .578.218.68.68 0 0 1 .25.547q-.001.345-.25.563a.9.9 0 0 1-.578.203m.657 6.234h-1.344v-5.61h1.344Zm3.845.11q-.843.001-1.5-.36a2.74 2.74 0 0 1-1.015-1.03c-.242-.446-.36-.97-.36-1.563 0-.563.118-1.055.36-1.485q.373-.656 1.015-1.031.657-.375 1.5-.375.844 0 1.5.375.655.375 1.016 1.031c.238.43.36.922.36 1.485q-.002.878-.36 1.546a2.63 2.63 0 0 1-1.016 1.032q-.645.375-1.5.375m0-1.157a1.3 1.3 0 0 0 1.063-.5q.422-.499.422-1.296 0-.499-.188-.891a1.5 1.5 0 0 0-.515-.61 1.4 1.4 0 0 0-.782-.218q-.44 0-.78.219a1.5 1.5 0 0 0-.516.609 2.04 2.04 0 0 0-.188.89q-.002.798.406 1.297c.282.336.64.5 1.078.5m5.191 1.047h-1.344v-5.61h1.344v.704q.342-.466.719-.64.374-.188.812-.188.78 0 1.172.281.389.27.578.656.17.377.203.766.031.375.032.797v3.234H271.9v-3.25q0-.435-.078-.687a1.1 1.1 0 0 0-.203-.438c-.157-.164-.391-.25-.704-.25q-.579.002-.843.344a1.4 1.4 0 0 0-.266.531c-.055.22-.078.516-.078.89Zm0 0"/></svg>