<svg viewBox="0 0 375 375"><defs><clipPath id="vant-vant-markbbg__a"><path d="M114.906 163h145.5v99.5h-145.5Zm0 0"/></clipPath><clipPath id="vant-vant-markbbg__b"><path d="M115 163.664h87V262.5h-87Zm0 0"/></clipPath><clipPath id="vant-vant-markbbg__c"><path d="M257.004 262.5H117.992c-2.472 0-3.937-2.523-2.547-4.387l69.504-93.218c.574-.77 1.528-1.23 2.547-1.23 1.024 0 1.977.46 2.55 1.23l69.505 93.218c1.39 1.864-.074 4.387-2.547 4.387m0 0"/></clipPath><clipPath id="vant-vant-markbbg__d"><path d="M169 112.5h37V149h-37Zm0 0"/></clipPath></defs><g clip-path="url(#vant-vant-markbbg__a)"><path fill="#3a3db5" d="M257.004 262.5H117.992c-2.472 0-3.937-2.523-2.547-4.387l69.504-93.218c.574-.77 1.528-1.23 2.547-1.23 1.024 0 1.977.46 2.55 1.23l69.505 93.218c1.39 1.864-.074 4.387-2.547 4.387m0 0"/></g><g clip-path="url(#vant-vant-markbbg__b)"><g clip-path="url(#vant-vant-markbbg__c)"><path fill="#22246b" d="M173.887 269.707c-19.407 1.492-38.887-1.039-58.164-3.566-2.086-10.172 1.504-20.621 6.355-29.98s11.02-18.2 14.606-28.02c3.574-9.793 4.523-20.407 9.59-29.637 3-5.461 7.445-10.238 12.78-13.922 3.9-2.691 8.372-4.57 13.005-5.96 4.418-1.325 8.722-3.415 12.53-.063 3.52 3.101 3.74 8.273 2.29 12.535-1.445 4.261-4.246 8.031-6.106 12.16-1.863 4.125-2.687 9.059-.203 12.902 3.446 5.328 11.032 6.352 16.094 9.906 6.184 4.336 5.5 11.184 2.16 16.946-3.207 5.52-7.383 9.004-12.648 13.008-1.563 1.191-4.121 2.566-4.793 4.418-.735 2.043 1.238 4.183 3.472 4.875 3.95 1.222 10.665-.88 13.079 3.308 2.023 3.508-3.454 10.11-5.926 12.594-4.5 4.512-11.45 7.98-18.121 8.492Zm0 0"/></g></g><g clip-path="url(#vant-vant-markbbg__d)"><path fill="#ffbd59" d="M205.477 130.48q0 .884-.086 1.762a19 19 0 0 1-.258 1.746 17 17 0 0 1-.43 1.711 17.93 17.93 0 0 1-7.215 9.73 19 19 0 0 1-1.515.91q-.78.416-1.594.755-.816.334-1.66.594-.85.255-1.715.43-.862.168-1.742.257-.88.087-1.766.086a17.7 17.7 0 0 1-3.504-.344 19 19 0 0 1-1.715-.43 19 19 0 0 1-1.66-.593 19 19 0 0 1-1.594-.754 19 19 0 0 1-1.515-.91q-.732-.488-1.418-1.051a17.93 17.93 0 0 1-6.57-13.898q-.001-.884.085-1.762.09-.879.258-1.746.172-.868.43-1.711a18 18 0 0 1 1.348-3.258c.277-.52.582-1.024.906-1.512q.493-.731 1.05-1.418.563-.68 1.188-1.308c.414-.414.852-.809 1.305-1.184q.686-.561 1.418-1.05a18 18 0 0 1 3.11-1.66 18 18 0 0 1 1.66-.599 18.6 18.6 0 0 1 3.456-.687 19 19 0 0 1 1.762-.086q.886.002 1.766.086.88.087 1.742.262.866.171 1.715.425.844.258 1.66.598a18 18 0 0 1 4.527 2.71q.681.563 1.305 1.185.626.628 1.187 1.308.559.686 1.051 1.418a18.1 18.1 0 0 1 2.941 8.227q.089.878.087 1.761m0 0"/></g></svg>